<?xml version="1.0" encoding="UTF-8" standalone="no"?>
<svg
   xmlns:dc="http://purl.org/dc/elements/1.1/"
   xmlns:cc="http://creativecommons.org/ns#"
   xmlns:rdf="http://www.w3.org/1999/02/22-rdf-syntax-ns#"
   xmlns:svg="http://www.w3.org/2000/svg"
   xmlns="http://www.w3.org/2000/svg"
   xmlns:sodipodi="http://sodipodi.sourceforge.net/DTD/sodipodi-0.dtd"
   xmlns:inkscape="http://www.inkscape.org/namespaces/inkscape"
   width="800"
   height="600"
   version="1.1"
   id="svg276"
   sodipodi:docname="mealy.svg"
   inkscape:version="0.92.4 (33fec40, 2019-01-16)">
  <metadata
     id="metadata282">
    <rdf:RDF>
      <cc:Work
         rdf:about="">
        <dc:format>image/svg+xml</dc:format>
        <dc:type
           rdf:resource="http://purl.org/dc/dcmitype/StillImage" />
      </cc:Work>
    </rdf:RDF>
  </metadata>
  <defs
     id="defs280" />
  <sodipodi:namedview
     pagecolor="#ffffff"
     bordercolor="#666666"
     borderopacity="1"
     objecttolerance="10"
     gridtolerance="10"
     guidetolerance="10"
     inkscape:pageopacity="0"
     inkscape:pageshadow="2"
     inkscape:window-width="1366"
     inkscape:window-height="648"
     id="namedview278"
     showgrid="false"
     inkscape:zoom="1.0889444"
     inkscape:cx="377.85516"
     inkscape:cy="368.00355"
     inkscape:window-x="0"
     inkscape:window-y="27"
     inkscape:window-maximized="1"
     inkscape:current-layer="svg276" />
  <ellipse
     stroke="black"
     stroke-width="1"
     fill="none"
     cx="396.5"
     cy="152.5"
     rx="30"
     ry="30"
     id="ellipse166" />
  <text
     x="387.5"
     y="158.5"
     font-size="20"
     id="text168"
     style="font-size:20px;font-family:'Times New Roman'">s1</text>
  <ellipse
     stroke="black"
     stroke-width="1"
     fill="none"
     cx="396.5"
     cy="285.5"
     rx="30"
     ry="30"
     id="ellipse170" />
  <text
     x="382.5"
     y="291.5"
     font-size="20"
     id="text172"
     style="font-size:20px;font-family:'Times New Roman'">s10</text>
  <ellipse
     stroke="black"
     stroke-width="1"
     fill="none"
     cx="509.5"
     cy="285.5"
     rx="30"
     ry="30"
     id="ellipse174" />
  <text
     x="491.5"
     y="291.5"
     font-size="20"
     id="text176"
     style="font-size:20px;font-family:'Times New Roman'">s101</text>
  <ellipse
     stroke="black"
     stroke-width="1"
     fill="none"
     cx="599.5"
     cy="152.5"
     rx="30"
     ry="30"
     id="ellipse178" />
  <text
     x="576.5"
     y="158.5"
     font-size="20"
     id="text180"
     style="font-size:20px;font-family:'Times New Roman'">s1011</text>
  <ellipse
     stroke="black"
     stroke-width="1"
     fill="none"
     cx="599.5"
     cy="402.5"
     rx="30"
     ry="30"
     id="ellipse182" />
  <text
     x="570.5"
     y="408.5"
     font-size="20"
     id="text184"
     style="font-size:20px;font-family:'Times New Roman'">s10110</text>
  <ellipse
     stroke="black"
     stroke-width="1"
     fill="none"
     cx="344.5"
     cy="402.5"
     rx="30"
     ry="30"
     id="ellipse186" />
  <ellipse
     stroke="black"
     stroke-width="1"
     fill="none"
     cx="196.5"
     cy="152.5"
     rx="30"
     ry="30"
     id="ellipse188" />
  <text
     x="184.5"
     y="158.5"
     font-size="20"
     id="text190"
     style="font-size:20px;font-family:'Times New Roman'">init</text>
  <path
     stroke="black"
     stroke-width="1"
     fill="none"
     d="M 395.124,122.649 A 22.5,22.5 0 1 1 419.357,133.251"
     id="path192" />
  <text
     x="428.5"
     y="81.5"
     font-family="Times New Roman"
     font-size="20"
     id="text194">1/0</text>
  <polygon
     fill="black"
     stroke-width="1"
     points="419.357,133.251 428.787,133.52 423.731,124.892"
     id="polygon196" />
  <polygon
     stroke="black"
     stroke-width="1"
     points="396.5,182.5 396.5,255.5"
     id="polygon198" />
  <polygon
     fill="black"
     stroke-width="1"
     points="396.5,255.5 401.5,247.5 391.5,247.5"
     id="polygon200" />
  <text
     x="358.5"
     y="225.5"
     font-family="Times New Roman"
     font-size="20"
     id="text202">0/0</text>
  <path
     stroke="black"
     stroke-width="1"
     fill="none"
     d="M 420.436,267.738 A 76.202,76.202 0 0 1 485.564,267.738"
     id="path204" />
  <polygon
     fill="black"
     stroke-width="1"
     points="485.564,267.738 480.468,259.799 476.194,268.84"
     id="polygon206" />
  <text
     x="436.5"
     y="251.5"
     font-family="Times New Roman"
     font-size="20"
     id="text208">1/0</text>
  <path
     stroke="black"
     stroke-width="1"
     fill="none"
     d="M 482.815,298.945 A 97.072,97.072 0 0 1 423.185,298.945"
     id="path210" />
  <polygon
     fill="black"
     stroke-width="1"
     points="423.185,298.945 429.263,306.16 432.334,296.644"
     id="polygon212" />
  <text
     x="436.5"
     y="324.5"
     font-family="Times New Roman"
     font-size="20"
     id="text214">0/0</text>
  <polygon
     stroke="black"
     stroke-width="1"
     points="526.313,260.654 582.687,177.346"
     id="polygon216" />
  <polygon
     fill="black"
     stroke-width="1"
     points="582.687,177.346 574.062,181.169 582.344,186.774"
     id="polygon218" />
  <text
     x="560.5"
     y="238.5"
     font-family="Times New Roman"
     font-size="20"
     id="text220">1/0</text>
  <polygon
     stroke="black"
     stroke-width="1"
     points="569.5,152.5 426.5,152.5"
     id="polygon222" />
  <polygon
     fill="black"
     stroke-width="1"
     points="426.5,152.5 434.5,157.5 434.5,147.5"
     id="polygon224" />
  <text
     x="481.5"
     y="173.5"
     font-family="Times New Roman"
     font-size="20"
     id="text226">1/0</text>
  <polygon
     stroke="black"
     stroke-width="1"
     points="599.5,182.5 599.5,372.5"
     id="polygon228" />
  <polygon
     fill="black"
     stroke-width="1"
     points="599.5,372.5 604.5,364.5 594.5,364.5"
     id="polygon230" />
  <text
     x="604.5"
     y="283.5"
     font-family="Times New Roman"
     font-size="20"
     id="text232">0/0</text>
  <path
     stroke="black"
     stroke-width="1"
     fill="none"
     d="M 572.068,390.529 A 126.664,126.664 0 0 1 514.034,315.084"
     id="path234" />
  <polygon
     fill="black"
     stroke-width="1"
     points="514.034,315.084 511.354,324.13 520.99,321.457"
     id="polygon236" />
  <text
     x="496.5"
     y="378.5"
     font-family="Times New Roman"
     font-size="20"
     id="text238">1/0</text>
  <polygon
     stroke="black"
     stroke-width="1"
     points="569.5,402.5 374.5,402.5"
     id="polygon240" />
  <polygon
     fill="black"
     stroke-width="1"
     points="374.5,402.5 382.5,407.5 382.5,397.5"
     id="polygon242" />
  <text
     x="455.5"
     y="393.5"
     font-family="Times New Roman"
     font-size="20"
     id="text244">0/0</text>
  <polygon
     stroke="black"
     stroke-width="1"
     points="226.5,152.5 366.5,152.5"
     id="polygon246" />
  <polygon
     fill="black"
     stroke-width="1"
     points="366.5,152.5 358.5,147.5 358.5,157.5"
     id="polygon248" />
  <text
     x="280.5"
     y="173.5"
     font-family="Times New Roman"
     font-size="20"
     id="text250">1/0</text>
  <path
     stroke="black"
     stroke-width="1"
     fill="none"
     d="M 175.521,173.78 A 22.5,22.5 0 1 1 166.848,148.792"
     id="path252" />
  <text
     x="92.5"
     y="188.5"
     font-family="Times New Roman"
     font-size="20"
     id="text254">0/0</text>
  <polygon
     fill="black"
     stroke-width="1"
     points="166.848,148.792 160.642,141.687 157.742,151.257"
     id="polygon256" />
  <path
     stroke="black"
     stroke-width="1"
     fill="none"
     d="M 321.554,383.185 A 397.26,397.26 0 0 1 202.398,181.907"
     id="path258" />
  <polygon
     fill="black"
     stroke-width="1"
     points="202.398,181.907 199.404,190.854 209.128,188.518"
     id="polygon260" />
  <text
     x="207.5"
     y="310.5"
     font-family="Times New Roman"
     font-size="20"
     id="text262">0/0</text>
  <path
     stroke="black"
     stroke-width="1"
     fill="none"
     d="M 368.267,275.372 A 439.871,439.871 0 0 1 216.758,174.619"
     id="path264" />
  <polygon
     fill="black"
     stroke-width="1"
     points="216.758,174.619 218.79,183.832 225.93,176.83"
     id="polygon266" />
  <text
     x="249.5"
     y="253.5"
     font-family="Times New Roman"
     font-size="20"
     id="text268">0/0</text>
  <path
     stroke="black"
     stroke-width="1"
     fill="none"
     d="M 314.546,402.046 A 161.875,161.875 0 0 1 182.491,178.98"
     id="path270" />
  <polygon
     fill="black"
     stroke-width="1"
     points="182.491,178.98 174.804,184.448 184.038,188.286"
     id="polygon272" />
  <text
     x="153.5"
     y="342.5"
     font-family="Times New Roman"
     font-size="20"
     id="text274">1/1</text>
  <text
     x="315.71481"
     y="407.25403"
     font-size="20"
     id="text184-3"
     style="font-size:20px;font-family:'Times New Roman'">
    <tspan
       style="font-size:17.33333397px"
       id="tspan308">s101100</tspan>
  </text>
</svg>
