<?xml version="1.0" encoding="UTF-8" standalone="no"?>
<svg
   xmlns:dc="http://purl.org/dc/elements/1.1/"
   xmlns:cc="http://creativecommons.org/ns#"
   xmlns:rdf="http://www.w3.org/1999/02/22-rdf-syntax-ns#"
   xmlns:svg="http://www.w3.org/2000/svg"
   xmlns="http://www.w3.org/2000/svg"
   xmlns:sodipodi="http://sodipodi.sourceforge.net/DTD/sodipodi-0.dtd"
   xmlns:inkscape="http://www.inkscape.org/namespaces/inkscape"
   width="800"
   height="600"
   version="1.1"
   id="svg300"
   sodipodi:docname="moore.svg"
   inkscape:version="0.92.4 (33fec40, 2019-01-16)">
  <metadata
     id="metadata306">
    <rdf:RDF>
      <cc:Work
         rdf:about="">
        <dc:format>image/svg+xml</dc:format>
        <dc:type
           rdf:resource="http://purl.org/dc/dcmitype/StillImage" />
      </cc:Work>
    </rdf:RDF>
  </metadata>
  <defs
     id="defs304" />
  <sodipodi:namedview
     pagecolor="#ffffff"
     bordercolor="#666666"
     borderopacity="1"
     objecttolerance="10"
     gridtolerance="10"
     guidetolerance="10"
     inkscape:pageopacity="0"
     inkscape:pageshadow="2"
     inkscape:window-width="1366"
     inkscape:window-height="648"
     id="namedview302"
     showgrid="false"
     inkscape:zoom="1.0889444"
     inkscape:cx="384.14682"
     inkscape:cy="335.37823"
     inkscape:window-x="0"
     inkscape:window-y="27"
     inkscape:window-maximized="1"
     inkscape:current-layer="svg300" />
  <ellipse
     stroke="black"
     stroke-width="1"
     fill="none"
     cx="396.5"
     cy="152.5"
     rx="30"
     ry="30"
     id="ellipse178" />
  <text
     x="379.5"
     y="158.5"
     font-size="20"
     id="text180"
     style="font-size:20px;font-family:'Times New Roman'">s1/0</text>
  <ellipse
     stroke="black"
     stroke-width="1"
     fill="none"
     cx="396.5"
     cy="285.5"
     rx="30"
     ry="30"
     id="ellipse182" />
  <text
     x="374.5"
     y="291.5"
     font-size="20"
     id="text184"
     style="font-size:20px;font-family:'Times New Roman'">s10/0</text>
  <ellipse
     stroke="black"
     stroke-width="1"
     fill="none"
     cx="509.5"
     cy="285.5"
     rx="30"
     ry="30"
     id="ellipse186" />
  <text
     x="483.5"
     y="291.5"
     font-size="20"
     id="text188"
     style="font-size:20px;font-family:'Times New Roman'">s101/0</text>
  <ellipse
     stroke="black"
     stroke-width="1"
     fill="none"
     cx="599.5"
     cy="152.5"
     rx="30"
     ry="30"
     id="ellipse190" />
  <text
     x="568.5"
     y="158.5"
     font-size="20"
     id="text192"
     style="font-size:20px;font-family:'Times New Roman'">s1011/0</text>
  <ellipse
     stroke="black"
     stroke-width="1"
     fill="none"
     cx="599.5"
     cy="402.5"
     rx="30"
     ry="30"
     id="ellipse194" />
  <ellipse
     stroke="black"
     stroke-width="1"
     fill="none"
     cx="396.5"
     cy="402.5"
     rx="30"
     ry="30"
     id="ellipse196" />
  <ellipse
     stroke="black"
     stroke-width="1"
     fill="none"
     cx="194.5"
     cy="402.5"
     rx="30"
     ry="30"
     id="ellipse198" />
  <ellipse
     stroke="black"
     stroke-width="1"
     fill="none"
     cx="194.5"
     cy="152.5"
     rx="30"
     ry="30"
     id="ellipse200" />
  <text
     x="174.5"
     y="158.5"
     font-size="20"
     id="text202"
     style="font-size:20px;font-family:'Times New Roman'">init/0</text>
  <path
     stroke="black"
     stroke-width="1"
     fill="none"
     d="M 395.124,122.649 A 22.5,22.5 0 1 1 419.357,133.251"
     id="path204" />
  <text
     x="428.5"
     y="81.5"
     font-family="Times New Roman"
     font-size="20"
     id="text206">1</text>
  <polygon
     fill="black"
     stroke-width="1"
     points="419.357,133.251 428.787,133.52 423.731,124.892"
     id="polygon208" />
  <polygon
     stroke="black"
     stroke-width="1"
     points="396.5,182.5 396.5,255.5"
     id="polygon210" />
  <polygon
     fill="black"
     stroke-width="1"
     points="396.5,255.5 401.5,247.5 391.5,247.5"
     id="polygon212" />
  <text
     x="378.5"
     y="225.5"
     font-family="Times New Roman"
     font-size="20"
     id="text214">0</text>
  <path
     stroke="black"
     stroke-width="1"
     fill="none"
     d="M 420.436,267.738 A 76.202,76.202 0 0 1 485.564,267.738"
     id="path216" />
  <polygon
     fill="black"
     stroke-width="1"
     points="485.564,267.738 480.468,259.799 476.194,268.84"
     id="polygon218" />
  <text
     x="446.5"
     y="251.5"
     font-family="Times New Roman"
     font-size="20"
     id="text220">1</text>
  <path
     stroke="black"
     stroke-width="1"
     fill="none"
     d="M 482.815,298.945 A 97.072,97.072 0 0 1 423.185,298.945"
     id="path222" />
  <polygon
     fill="black"
     stroke-width="1"
     points="423.185,298.945 429.263,306.16 432.334,296.644"
     id="polygon224" />
  <text
     x="446.5"
     y="324.5"
     font-family="Times New Roman"
     font-size="20"
     id="text226">0</text>
  <polygon
     stroke="black"
     stroke-width="1"
     points="526.313,260.654 582.687,177.346"
     id="polygon228" />
  <polygon
     fill="black"
     stroke-width="1"
     points="582.687,177.346 574.062,181.169 582.344,186.774"
     id="polygon230" />
  <text
     x="560.5"
     y="238.5"
     font-family="Times New Roman"
     font-size="20"
     id="text232">1</text>
  <polygon
     stroke="black"
     stroke-width="1"
     points="569.5,152.5 426.5,152.5"
     id="polygon234" />
  <polygon
     fill="black"
     stroke-width="1"
     points="426.5,152.5 434.5,157.5 434.5,147.5"
     id="polygon236" />
  <text
     x="491.5"
     y="173.5"
     font-family="Times New Roman"
     font-size="20"
     id="text238">1</text>
  <polygon
     stroke="black"
     stroke-width="1"
     points="599.5,182.5 599.5,372.5"
     id="polygon240" />
  <polygon
     fill="black"
     stroke-width="1"
     points="599.5,372.5 604.5,364.5 594.5,364.5"
     id="polygon242" />
  <text
     x="604.5"
     y="283.5"
     font-family="Times New Roman"
     font-size="20"
     id="text244">0</text>
  <path
     stroke="black"
     stroke-width="1"
     fill="none"
     d="M 572.068,390.529 A 126.664,126.664 0 0 1 514.034,315.084"
     id="path246" />
  <polygon
     fill="black"
     stroke-width="1"
     points="514.034,315.084 511.354,324.13 520.99,321.457"
     id="polygon248" />
  <text
     x="516.5"
     y="378.5"
     font-family="Times New Roman"
     font-size="20"
     id="text250">1</text>
  <polygon
     stroke="black"
     stroke-width="1"
     points="569.5,402.5 426.5,402.5"
     id="polygon252" />
  <polygon
     fill="black"
     stroke-width="1"
     points="426.5,402.5 434.5,407.5 434.5,397.5"
     id="polygon254" />
  <text
     x="491.5"
     y="393.5"
     font-family="Times New Roman"
     font-size="20"
     id="text256">0</text>
  <polygon
     stroke="black"
     stroke-width="1"
     points="366.5,402.5 224.5,402.5"
     id="polygon258" />
  <polygon
     fill="black"
     stroke-width="1"
     points="224.5,402.5 232.5,407.5 232.5,397.5"
     id="polygon260" />
  <text
     x="289.5"
     y="393.5"
     font-family="Times New Roman"
     font-size="20"
     id="text262">1</text>
  <path
     stroke="black"
     stroke-width="1"
     fill="none"
     d="M 167.017,390.568 A 171.546,171.546 0 1 1 379.062,128.136"
     id="path264" />
  <polygon
     fill="black"
     stroke-width="1"
     points="379.062,128.136 377.651,118.808 370.059,125.316"
     id="polygon266" />
  <text
     x="96.5"
     y="123.5"
     font-family="Times New Roman"
     font-size="20"
     id="text268">1</text>
  <polygon
     stroke="black"
     stroke-width="1"
     points="224.5,152.5 366.5,152.5"
     id="polygon270" />
  <polygon
     fill="black"
     stroke-width="1"
     points="366.5,152.5 358.5,147.5 358.5,157.5"
     id="polygon272" />
  <text
     x="289.5"
     y="173.5"
     font-family="Times New Roman"
     font-size="20"
     id="text274">1</text>
  <path
     stroke="black"
     stroke-width="1"
     fill="none"
     d="M 173.576,173.835 A 22.5,22.5 0 1 1 164.838,148.87"
     id="path276" />
  <text
     x="110.5"
     y="188.5"
     font-family="Times New Roman"
     font-size="20"
     id="text278">0</text>
  <polygon
     fill="black"
     stroke-width="1"
     points="164.838,148.87 158.614,141.781 155.739,151.358"
     id="polygon280" />
  <polygon
     stroke="black"
     stroke-width="1"
     points="194.5,372.5 194.5,182.5"
     id="polygon282" />
  <polygon
     fill="black"
     stroke-width="1"
     points="194.5,182.5 189.5,190.5 199.5,190.5"
     id="polygon284" />
  <text
     x="199.5"
     y="283.5"
     font-family="Times New Roman"
     font-size="20"
     id="text286">0</text>
  <path
     stroke="black"
     stroke-width="1"
     fill="none"
     d="M 371.462,385.984 A 483.09,483.09 0 0 1 205.389,180.449"
     id="path288" />
  <polygon
     fill="black"
     stroke-width="1"
     points="205.389,180.449 203.923,189.768 213.124,185.85"
     id="polygon290" />
  <text
     x="255.5"
     y="315.5"
     font-family="Times New Roman"
     font-size="20"
     id="text292">0</text>
  <path
     stroke="black"
     stroke-width="1"
     fill="none"
     d="M 368.235,275.462 A 445.877,445.877 0 0 1 214.891,174.497"
     id="path294" />
  <polygon
     fill="black"
     stroke-width="1"
     points="214.891,174.497 216.973,183.698 224.074,176.657"
     id="polygon296" />
  <text
     x="268.5"
     y="253.5"
     font-family="Times New Roman"
     font-size="20"
     id="text298">0</text>
  <text
     x="569.92841"
     y="406.39688"
     font-size="20"
     id="text192-3"
     style="font-size:20px;font-family:'Times New Roman'">
    <tspan
       style="font-size:16px"
       id="tspan323">s10110/0</tspan>
  </text>
  <text
     x="366.34793"
     y="406.54089"
     font-size="20"
     id="text192-3-6"
     style="font-size:20px;font-family:'Times New Roman'">
    <tspan
       style="font-size:14.66666698px"
       id="tspan323-7">s101100/0</tspan>
  </text>
  <text
     x="163.85571"
     y="405.94821"
     font-size="20"
     id="text192-3-6-5"
     style="font-size:13.33333302px;font-family:'Times New Roman'">
    <tspan
       style="font-size:13.33333302px"
       id="tspan323-7-3">s1011001/1</tspan>
  </text>
</svg>
